# xmcd CD database file
# Copyright (C) 1997 Ti Kan
#
# Track frame offsets:
#  150
#  12715
#  28155
#  45990
#  65202
#  78300
#  98515
#  114645
#  129510
#  148625
#  167237
#  179687
#
# Disc length: 2602 seconds
#
# Revision: 1
# Processed by: cddbd v1.4b41PL1 Copyright (c) Steve Scherf et al.
# Submitted via: CDWizzard Release:4.31
#
DISCID=a80a280c
DTITLE=Rodney Crowell - Keys To The Highway
DYEAR=1900
DGENRE=
TTITLE0=MY PAST IS PRESENT
TTITLE1=IT LOOKS COULD KILL
TTITLE2=SOUL SEARCHIN
TTITLE3=MANY A LONG and LONESOME HIGHWAY
TTITLE4=WE GOTTA GO ON MEETING LIKE THIS
TTITLE5=THE FAITH IS MINE
TTITLE6=TELL ME THE TRUTH
TTITLE7=DON'T LET YOUR FEET SLOW YOU DOWN
TTITLE8=NOW THAT WE'RE ALONE
TTITLE9=THINGS I WISH I'D SAID
TTITLE10=I GUESS WE'VE BEEN TOGETHER FOR TOO LONG
TTITLE11=YOU BEEN ON MY MIND
EXTD=
EXTT0=
EXTT1=
EXTT2=
EXTT3=
EXTT4=
EXTT5=
EXTT6=
EXTT7=
EXTT8=
EXTT9=
EXTT10=
EXTT11=
PLAYORDER=
